<svg xmlns="http://www.w3.org/2000/svg" width="548" height="644"><path fill-rule="evenodd" d="M542.96 237.388c0-119.167 1.387-154.785-33.395-194.057C477.221 6.367 429.852 3.896 367.997 3.297H180.625c-79.779.599-111.383 9.195-141.555 39.672C-.521 82.96 6.327 157.305 5.52 237.367c0 0 .364 189.472.364 222.804 0 80.704 6.561 105.511 32.75 137.626 42.698 47.674 125.258 37.849 142.015 39.827l194.461.005c54.872 0 103.09-5.32 134.481-39.605 31.315-34.202 32.446-80.333 33.37-137.848l-.001-222.788z"/></svg>